<?xml version="1.0" encoding="utf-8"?>
<!-- Generator: Adobe Illustrator 16.0.0, SVG Export Plug-In . SVG Version: 6.00 Build 0)  -->
<!DOCTYPE svg PUBLIC "-//W3C//DTD SVG 1.1//EN" "http://www.w3.org/Graphics/SVG/1.1/DTD/svg11.dtd">
<svg version="1.1" id="Capa_1" xmlns="http://www.w3.org/2000/svg" xmlns:xlink="http://www.w3.org/1999/xlink" x="0px" y="0px"
	 width="30px" height="30px" viewBox="0 0 30 30" enable-background="new 0 0 30 30" xml:space="preserve">
<path fill-rule="evenodd" clip-rule="evenodd" fill="#603813" d="M0,15.998c0-0.582,0-1.167,0-1.752
	c0.02-0.092,0.035-0.185,0.053-0.281c0.156-0.926,0.24-1.875,0.488-2.777C2.801,3.01,11.277-1.633,19.357,0.848
	c7.453,2.289,11.95,10.015,10.13,17.613c-1.308,5.455-4.742,9.064-10.042,10.887c-0.85,0.294-1.763,0.438-2.667,0.652
	c0-3.965,0-7.85,0-11.771c1.202,0,2.386,0,3.575,0c0.18-1.397,0.355-2.763,0.542-4.168c-1.391,0-2.757,0-4.126,0
	c0-1.036-0.04-2.041,0.013-3.037C16.847,9.936,17.4,9.438,18.49,9.4c0.738-0.026,1.476-0.024,2.215-0.033
	c0.103-0.002,0.206-0.009,0.327-0.016c0-1.199,0.002-2.363-0.009-3.529c0-0.071-0.126-0.193-0.198-0.195
	c-1.188-0.054-2.375-0.146-3.559-0.118c-1.126,0.027-2.175,0.404-3.055,1.147c-1.151,0.972-1.643,2.269-1.726,3.723
	c-0.056,1.107-0.03,2.217-0.038,3.324c-0.005,0.116,0,0.231,0,0.378c-1.219,0-2.396,0-3.576,0c0,1.397,0,2.766,0,4.172
	c1.199,0,2.376,0,3.558,0c0,3.882,0,7.72,0,11.56c-0.042,0.002-0.072,0.016-0.1,0.011c-1.311-0.225-2.56-0.632-3.759-1.203
	c-2.251-1.077-4.137-2.605-5.624-4.612c-1.395-1.884-2.315-3.97-2.714-6.283C0.135,17.156,0.076,16.578,0,15.998z"/>
</svg>
