<?xml version="1.0" encoding="utf-8"?>
<!-- Generator: Adobe Illustrator 16.0.0, SVG Export Plug-In . SVG Version: 6.00 Build 0)  -->
<!DOCTYPE svg PUBLIC "-//W3C//DTD SVG 1.1//EN" "http://www.w3.org/Graphics/SVG/1.1/DTD/svg11.dtd">
<svg version="1.1" id="Capa_1" xmlns="http://www.w3.org/2000/svg" xmlns:xlink="http://www.w3.org/1999/xlink" x="0px" y="0px"
	 width="30px" height="30px" viewBox="0 0 30 30" enable-background="new 0 0 30 30" xml:space="preserve">
<g>
	<path fill-rule="evenodd" clip-rule="evenodd" fill="#603813" d="M14.992,30.105c-1.438,0-2.875,0.016-4.312-0.004
		c-1.389-0.02-2.777-0.053-4.148-0.353c-3.223-0.708-5.559-3.165-6.114-6.421c-0.256-1.512-0.273-3.039-0.282-4.564
		c-0.01-2.844,0-5.688,0.026-8.53c0.018-1.314,0.084-2.63,0.467-3.904c0.913-3.055,2.963-4.88,6.049-5.579
		c1.107-0.251,2.235-0.302,3.359-0.312c3.297-0.017,6.59-0.019,9.888,0.002c1.301,0.009,2.601,0.073,3.866,0.43
		c3.143,0.891,5.017,2.965,5.718,6.127c0.291,1.323,0.304,2.674,0.313,4.019c0.018,2.828,0.018,5.656,0,8.484
		c-0.008,1.397-0.022,2.801-0.344,4.173c-0.793,3.339-2.887,5.369-6.229,6.112c-1.299,0.292-2.627,0.298-3.949,0.315
		C17.866,30.121,16.429,30.105,14.992,30.105z M2.745,15.265c0.013,0,0.026,0.002,0.044,0.002c0,1.247-0.021,2.495,0.005,3.74
		c0.03,1.313,0,2.636,0.264,3.932c0.432,2.152,1.68,3.57,3.818,4.156c0.912,0.25,1.852,0.314,2.786,0.319
		c3.545,0.016,7.093,0.018,10.637-0.002c0.776-0.007,1.561-0.079,2.324-0.22c2.173-0.403,3.602-1.662,4.193-3.822
		c0.282-1.032,0.321-2.095,0.33-3.15c0.031-2.625,0.044-5.246,0.04-7.872c-0.004-1.487,0.004-2.98-0.217-4.459
		c-0.224-1.494-0.86-2.764-2.12-3.659c-0.926-0.657-1.988-0.954-3.103-1.024c-1.371-0.084-2.751-0.132-4.123-0.137
		C15,3.06,12.373,3.086,9.75,3.113C8.855,3.122,7.952,3.175,7.069,3.386C5.236,3.825,3.94,4.892,3.296,6.697
		C3.027,7.458,2.9,8.249,2.882,9.051C2.824,11.123,2.789,13.193,2.745,15.265z"/>
	<path fill-rule="evenodd" clip-rule="evenodd" fill="#603813" d="M7.361,15.244c0.004-4.194,3.407-7.601,7.601-7.606
		c4.244-0.005,7.661,3.412,7.652,7.646c-0.009,4.223-3.434,7.623-7.671,7.609C10.747,22.882,7.356,19.459,7.361,15.244z
		 M14.992,10.292c-2.743-0.005-4.982,2.237-4.978,4.979c0.004,2.739,2.227,4.958,4.968,4.958c2.755,0.004,4.973-2.216,4.968-4.971
		C19.951,12.518,17.729,10.296,14.992,10.292z"/>
	<path fill-rule="evenodd" clip-rule="evenodd" fill="#603813" d="M22.878,9.119c-0.996-0.026-1.78-0.844-1.75-1.82
		c0.031-0.992,0.847-1.761,1.834-1.737c0.961,0.022,1.75,0.842,1.729,1.797C24.673,8.353,23.856,9.144,22.878,9.119z"/>
</g>
</svg>
