<?xml version="1.0" encoding="utf-8"?>
<!-- Generator: Adobe Illustrator 16.0.0, SVG Export Plug-In . SVG Version: 6.00 Build 0)  -->
<!DOCTYPE svg PUBLIC "-//W3C//DTD SVG 1.1//EN" "http://www.w3.org/Graphics/SVG/1.1/DTD/svg11.dtd">
<svg version="1.1" id="Capa_1" xmlns="http://www.w3.org/2000/svg" xmlns:xlink="http://www.w3.org/1999/xlink" x="0px" y="0px"
	 width="148.375px" height="71.188px" viewBox="0 0 148.375 71.188" enable-background="new 0 0 148.375 71.188"
	 xml:space="preserve">
<g>
	<g>
		<path fill="#F9F3CE" d="M30.184,13.013l-5.795,1.071c0.252-1.154,0.378-2.121,0.378-2.897c0-4.997-3.034-7.496-9.102-7.496
			c-4.787,0-7.181,1.722-7.181,5.165c0,2.583,2.677,4.798,8.031,6.645c10.33,3.548,15.495,8.798,15.495,15.747
			c0,4.073-1.448,7.343-4.346,9.81c-2.897,2.467-6.75,3.7-11.558,3.7c-10.645,0-15.967-4.125-15.967-12.376
			c0-0.672,0.052-1.501,0.157-2.488l6.016-1.323c-0.462,1.827-0.693,3.412-0.693,4.755c0,5.333,3.055,8,9.165,8
			c4.892,0,7.338-1.921,7.338-5.763c0-2.855-2.929-5.364-8.787-7.527C4.873,24.929,0.643,19.963,0.643,13.139
			c0-3.863,1.412-6.976,4.236-9.338c2.824-2.362,6.535-3.543,11.133-3.543C25.459,0.258,30.184,4.51,30.184,13.013z"/>
		<path fill="#F9F3CE" d="M37.49,43.971V0.982h18.549c10.519,0,15.778,4.21,15.778,12.629c0,8.503-5.847,12.755-17.542,12.755
			h-4.315v17.605H37.49z M49.961,22.398h2.803c4.535,0,6.802-3.002,6.802-9.007c0-5.626-2.268-8.44-6.802-8.44h-2.803V22.398z"/>
		<path fill="#F9F3CE" d="M93.58,0.227c12.513,0,18.77,7.412,18.77,22.234c0,14.823-6.373,22.234-19.116,22.234
			c-12.745,0-19.117-7.579-19.117-22.738C74.117,7.47,80.604,0.227,93.58,0.227z M93.233,3.66c-2.352,0-3.942,1.296-4.771,3.889
			c-0.83,2.593-1.244,7.564-1.244,14.912c0,7.349,0.415,12.32,1.244,14.913c0.829,2.593,2.419,3.889,4.771,3.889
			c2.351,0,3.941-1.296,4.771-3.889c0.829-2.593,1.244-7.563,1.244-14.913c0-7.327-0.415-12.292-1.244-14.896
			C97.175,4.961,95.584,3.66,93.233,3.66z"/>
		<path fill="#F9F3CE" d="M148.032,0.982v4.315h-10.55v38.674h-13.227V5.297h-10.613V0.982H148.032z"/>
	</g>
	<g>
		<path fill="#F9F3CE" d="M22.714,70.382l-6.4-18.889h4.21l4.125,13.256l4.096-13.256h4.097l-6.401,18.889H22.714z"/>
		<path fill="#F9F3CE" d="M35.743,70.382V51.494h3.954v18.889H35.743z"/>
		<path fill="#F9F3CE" d="M54.802,70.382l-8.079-12.688v12.688h-3.669V51.494h4.182l7.51,12.146V51.494h3.698v18.889H54.802z"/>
		<path fill="#F9F3CE" d="M67.006,70.382V54.793h-5.689v-3.3h15.361v3.3H70.96v15.589H67.006z"/>
		<path fill="#F9F3CE" d="M87.801,70.382l-1.195-3.897h-6.97l-1.337,3.897h-4.182l6.742-18.889h4.58l6.657,18.889H87.801z
			 M83.107,55.732h-0.028l-2.418,7.51h4.808L83.107,55.732z"/>
		<path fill="#F9F3CE" d="M107.06,70.382l-0.085-1.877c-0.455,0.796-1.186,1.418-2.19,1.863c-1.005,0.445-2.162,0.668-3.471,0.668
			s-2.489-0.28-3.542-0.839c-1.053-0.559-1.954-1.309-2.703-2.247c-0.75-0.939-1.323-2.02-1.721-3.243
			c-0.398-1.223-0.597-2.489-0.597-3.797c0-1.384,0.199-2.688,0.597-3.912c0.398-1.223,0.986-2.29,1.764-3.2
			c0.778-0.911,1.745-1.626,2.902-2.148c1.157-0.521,2.503-0.782,4.04-0.782c1.119,0,2.167,0.161,3.143,0.483
			c0.977,0.323,1.83,0.768,2.561,1.337c0.73,0.569,1.318,1.248,1.764,2.034c0.445,0.787,0.706,1.655,0.782,2.603h-3.982
			c-0.057-0.436-0.209-0.849-0.455-1.237c-0.247-0.389-0.56-0.726-0.939-1.01c-0.379-0.284-0.82-0.512-1.323-0.683
			c-0.503-0.17-1.02-0.256-1.55-0.256c-1.593,0-2.869,0.593-3.826,1.778c-0.958,1.186-1.437,2.906-1.437,5.163
			c0,0.778,0.1,1.56,0.298,2.347c0.199,0.787,0.512,1.498,0.939,2.133c0.427,0.636,0.972,1.152,1.636,1.55
			c0.664,0.398,1.451,0.598,2.361,0.598c0.644,0,1.247-0.114,1.806-0.342c0.559-0.228,1.048-0.54,1.465-0.938
			s0.744-0.858,0.981-1.38c0.237-0.521,0.356-1.076,0.356-1.664h-4.182v-3.158h7.88v10.156H107.06z"/>
		<path fill="#F9F3CE" d="M113.687,70.382V51.494h13.882v3.3h-10.042v4.04h9.245v3.328h-9.245v4.864h10.497v3.357H113.687z"/>
	</g>
</g>
</svg>
