<?xml version="1.0" encoding="utf-8"?>
<!-- Generator: Adobe Illustrator 16.0.0, SVG Export Plug-In . SVG Version: 6.00 Build 0)  -->
<!DOCTYPE svg PUBLIC "-//W3C//DTD SVG 1.1//EN" "http://www.w3.org/Graphics/SVG/1.1/DTD/svg11.dtd">
<svg version="1.1" id="Capa_1" xmlns="http://www.w3.org/2000/svg" xmlns:xlink="http://www.w3.org/1999/xlink" x="0px" y="0px"
	 width="50px" height="50px" viewBox="0 0 50 50" enable-background="new 0 0 50 50" xml:space="preserve">
<path fill-rule="evenodd" clip-rule="evenodd" fill="#F9F3CE" d="M11.236,4.167c0.625,0.218,0.901,0.67,1.004,1.318
	c0.274,1.728,0.596,3.448,0.899,5.171c0.005,0.032,0.019,0.063,0.04,0.129c0.131,0,0.272,0,0.411,0c7.49,0,14.979,0,22.47,0.002
	c0.207,0,0.421-0.006,0.619,0.043c0.734,0.183,1.084,0.93,0.788,1.692c-0.484,1.254-0.985,2.502-1.48,3.751
	c-0.806,2.032-1.613,4.064-2.42,6.095c-0.34,0.858-0.649,1.068-1.585,1.068c-5.41,0-10.819,0-16.228,0c-0.141,0-0.282,0-0.481,0
	c0.089,0.538,0.166,1.04,0.257,1.54c0.047,0.265,0.033,0.629,0.198,0.761c0.17,0.136,0.523,0.051,0.795,0.051
	c6.527,0.001,13.053,0,19.58,0.003c0.206,0,0.418,0.009,0.617,0.056c0.569,0.137,0.948,0.683,0.897,1.251
	c-0.057,0.622-0.519,1.078-1.131,1.119c-0.076,0.005-0.152,0.005-0.229,0.005c-7.162,0.001-14.323,0.003-21.484-0.007
	c-0.262,0-0.543-0.075-0.778-0.191c-0.357-0.176-0.511-0.526-0.575-0.909c-0.554-3.267-1.105-6.534-1.658-9.802
	c-0.59-3.494-1.185-6.987-1.769-10.482C9.959,6.625,9.867,6.596,9.689,6.597C8.552,6.602,7.413,6.605,6.273,6.594
	C5.744,6.589,5.286,6.231,5.14,5.75C4.988,5.248,5.16,4.709,5.584,4.407c0.14-0.1,0.306-0.162,0.46-0.241
	C7.775,4.167,9.504,4.167,11.236,4.167z"/>
<path fill-rule="evenodd" clip-rule="evenodd" fill="#F9F3CE" d="M17.543,37.807c-0.708-0.16-1.394-0.372-1.962-0.847
	c-1.277-1.063-1.79-2.426-1.409-4.039c0.387-1.645,1.473-2.678,3.131-2.986c2.199-0.408,4.262,1.035,4.633,3.158
	c0.393,2.238-1.028,4.246-3.293,4.66c-0.041,0.007-0.076,0.036-0.114,0.054C18.199,37.807,17.871,37.807,17.543,37.807z"/>
<path fill-rule="evenodd" clip-rule="evenodd" fill="#F9F3CE" d="M29.172,37.807c-0.558-0.209-1.162-0.34-1.665-0.641
	c-1.6-0.954-2.254-2.973-1.599-4.729c0.636-1.704,2.453-2.816,4.181-2.561c1.968,0.292,3.379,1.778,3.501,3.678
	c0.132,2.085-1.266,3.838-3.347,4.197c-0.052,0.01-0.101,0.037-0.151,0.055C29.785,37.807,29.479,37.807,29.172,37.807z"/>
</svg>
