<?xml version="1.0" encoding="utf-8"?>
<!-- Generator: Adobe Illustrator 16.0.0, SVG Export Plug-In . SVG Version: 6.00 Build 0)  -->
<!DOCTYPE svg PUBLIC "-//W3C//DTD SVG 1.1//EN" "http://www.w3.org/Graphics/SVG/1.1/DTD/svg11.dtd">
<svg version="1.1" id="Capa_1" xmlns="http://www.w3.org/2000/svg" xmlns:xlink="http://www.w3.org/1999/xlink" x="0px" y="0px"
	 width="50px" height="50px" viewBox="0 0 50 50" enable-background="new 0 0 50 50" xml:space="preserve">
<path fill-rule="evenodd" clip-rule="evenodd" fill="#603813" d="M10.213,0.37c0.896,0.312,1.291,0.958,1.438,1.886
	c0.392,2.472,0.852,4.934,1.285,7.399c0.008,0.045,0.027,0.089,0.059,0.185c0.187,0,0.39,0,0.588,0c10.717,0,21.434,0,32.15,0.003
	c0.297,0,0.603-0.008,0.886,0.062c1.051,0.262,1.551,1.331,1.128,2.421c-0.694,1.793-1.41,3.58-2.118,5.368
	c-1.153,2.907-2.309,5.814-3.463,8.721c-0.487,1.229-0.93,1.528-2.268,1.528c-7.741,0-15.48,0-23.219,0c-0.202,0-0.403,0-0.689,0
	c0.127,0.769,0.237,1.487,0.368,2.203c0.066,0.38,0.048,0.9,0.283,1.09c0.243,0.194,0.748,0.072,1.138,0.072
	c9.338,0.002,18.676,0,28.014,0.004c0.295,0,0.6,0.012,0.884,0.08c0.815,0.196,1.356,0.977,1.283,1.79
	c-0.081,0.891-0.74,1.544-1.617,1.602c-0.109,0.007-0.219,0.007-0.328,0.007c-10.246,0.003-20.493,0.005-30.739-0.009
	c-0.375,0-0.778-0.108-1.114-0.275c-0.511-0.251-0.73-0.752-0.822-1.301c-0.793-4.674-1.581-9.349-2.372-14.024
	c-0.845-5-1.696-9.997-2.531-14.998C8.387,3.887,8.254,3.847,8,3.847C6.372,3.854,4.743,3.86,3.113,3.843
	C2.355,3.835,1.7,3.324,1.491,2.635C1.273,1.917,1.52,1.146,2.126,0.714C2.327,0.571,2.565,0.483,2.785,0.37
	C5.261,0.37,7.735,0.37,10.213,0.37z"/>
<path fill-rule="evenodd" clip-rule="evenodd" fill="#603813" d="M19.237,48.504c-1.012-0.231-1.994-0.533-2.807-1.213
	c-1.827-1.521-2.562-3.47-2.017-5.779c0.555-2.353,2.107-3.831,4.48-4.272c3.145-0.583,6.097,1.481,6.627,4.52
	c0.562,3.202-1.47,6.075-4.712,6.668c-0.057,0.01-0.107,0.051-0.163,0.077C20.177,48.504,19.707,48.504,19.237,48.504z"/>
<path fill-rule="evenodd" clip-rule="evenodd" fill="#603813" d="M35.876,48.504c-0.797-0.3-1.662-0.487-2.382-0.917
	c-2.288-1.365-3.224-4.254-2.287-6.767c0.91-2.438,3.511-4.029,5.982-3.662c2.814,0.417,4.834,2.544,5.01,5.262
	c0.188,2.983-1.813,5.491-4.789,6.005c-0.074,0.015-0.144,0.053-0.217,0.079C36.754,48.504,36.316,48.504,35.876,48.504z"/>
</svg>
