<?xml version="1.0" encoding="utf-8"?>
<!-- Generator: Adobe Illustrator 16.0.0, SVG Export Plug-In . SVG Version: 6.00 Build 0)  -->
<!DOCTYPE svg PUBLIC "-//W3C//DTD SVG 1.1//EN" "http://www.w3.org/Graphics/SVG/1.1/DTD/svg11.dtd">
<svg version="1.1" id="Capa_1" xmlns="http://www.w3.org/2000/svg" xmlns:xlink="http://www.w3.org/1999/xlink" x="0px" y="0px"
	 width="30px" height="30px" viewBox="0 0 30 30" enable-background="new 0 0 30 30" xml:space="preserve">
<g>
	<path fill-rule="evenodd" clip-rule="evenodd" fill="#603813" d="M15.254,0c0.176,0,0.356,0,0.535,0
		c0.597,0.053,1.2,0.066,1.788,0.161c5.79,0.937,9.837,4.09,11.901,9.6c2.166,5.792,0.229,12.554-4.648,16.303
		c-4.829,3.714-10.072,4.167-15.594,1.693c-0.448-0.2-0.812-0.217-1.267-0.068c-2.199,0.721-4.409,1.417-6.615,2.119
		C1.137,29.875,0.916,29.92,0.589,30c0.134-0.426,0.218-0.721,0.318-1.016c0.681-2.046,1.358-4.098,2.061-6.142
		c0.151-0.433,0.122-0.783-0.092-1.198c-1.558-2.97-2.111-6.089-1.552-9.433c1.026-6.129,6-11.1,12.147-12.003
		C14.059,0.122,14.658,0.068,15.254,0z M4.379,26.284c1.414-0.455,2.663-0.832,3.894-1.268c0.498-0.177,0.881-0.13,1.36,0.126
		c4.383,2.381,8.76,2.324,12.889-0.475c4.134-2.803,5.844-6.888,5.209-11.81c-0.736-5.707-5.68-10.091-11.516-10.305
		c-4.873-0.177-8.626,1.94-11.02,6.13c-2.415,4.225-2.155,8.518,0.386,12.681c0.155,0.258,0.211,0.677,0.125,0.961
		C5.318,23.604,4.865,24.857,4.379,26.284z"/>
	<path fill-rule="evenodd" clip-rule="evenodd" fill="#603813" d="M19.653,22.067c-0.759-0.228-1.527-0.43-2.275-0.692
		c-4.101-1.422-6.703-4.425-8.503-8.211c-0.801-1.67-0.615-3.333,0.565-4.83c0.595-0.759,1.365-0.97,2.255-0.777
		c0.222,0.048,0.489,0.273,0.577,0.479c0.42,0.983,0.788,1.986,1.169,2.985c0.213,0.559-0.151,0.934-0.443,1.317
		c-0.905,1.163-0.905,1.154-0.056,2.403c1.041,1.534,2.414,2.665,4.07,3.475c0.475,0.234,0.83,0.211,1.167-0.213
		c0.292-0.366,0.627-0.692,0.921-1.059c0.273-0.342,0.581-0.475,0.984-0.264c0.966,0.506,1.947,0.999,2.89,1.542
		c0.171,0.097,0.299,0.429,0.302,0.652c0.002,1.707-1.205,2.669-2.921,3.027c-0.21,0.046-0.442,0.033-0.662,0.044
		C19.679,21.987,19.666,22.029,19.653,22.067z"/>
</g>
</svg>
